<?xml version="1.0" standalone="no"?>
<!DOCTYPE svg PUBLIC "-//W3C//DTD SVG 20010904//EN"
 "http://www.w3.org/TR/2001/REC-SVG-20010904/DTD/svg10.dtd">
<svg version="1.0" xmlns="http://www.w3.org/2000/svg"
 width="100.000000pt" height="100.000000pt" viewBox="0 0 100.000000 100.000000"
 preserveAspectRatio="xMidYMid meet">

<g transform="translate(0.000000,100.000000) scale(0.100000,-0.100000)"
fill="#000000" stroke="none">
<path d="M122 988 c-9 -9 -12 -133 -12 -495 l0 -483 23 -5 c12 -3 184 -4 382
-3 l360 3 3 484 c1 349 -1 488 -9 497 -16 19 -728 21 -747 2z m296 -330 l-3
-323 -142 -3 -143 -3 0 319 c0 175 3 322 7 325 3 4 69 7 145 7 l138 0 -2 -322z
m440 305 c3 -10 -42 -13 -202 -13 -178 0 -206 2 -206 15 0 13 27 15 202 13
150 -2 202 -6 206 -15z m2 -43 c0 -19 -7 -20 -209 -20 -204 0 -209 0 -204 20
5 19 14 20 209 20 197 0 204 -1 204 -20z m0 -40 c0 -14 -407 -14 -415 0 -4 7
67 10 204 10 134 0 211 -4 211 -10z m-102 -27 c-60 -2 -156 -2 -215 0 -60 1
-11 3 107 3 118 0 167 -2 108 -3z m102 -23 c0 -14 -407 -14 -415 0 -4 7 67 10
204 10 134 0 211 -4 211 -10z m-102 -27 c-60 -2 -156 -2 -215 0 -60 1 -11 3
107 3 118 0 167 -2 108 -3z m102 -23 c0 -6 -75 -10 -205 -10 -130 0 -205 4
-205 10 0 6 75 10 205 10 130 0 205 -4 205 -10z m-102 -27 c-60 -2 -156 -2
-215 0 -60 1 -11 3 107 3 118 0 167 -2 108 -3z m102 -23 c0 -6 -77 -10 -211
-10 -137 0 -208 3 -204 10 8 14 415 14 415 0z m-102 -27 c-60 -2 -156 -2 -215
0 -60 1 -11 3 107 3 118 0 167 -2 108 -3z m102 -23 c0 -6 -77 -10 -210 -10
-133 0 -210 4 -210 10 0 6 77 10 210 10 133 0 210 -4 210 -10z m0 -40 c0 -19
-7 -20 -210 -20 -203 0 -210 1 -210 20 0 19 7 20 210 20 203 0 210 -1 210 -20z
m0 -50 c0 -19 -7 -20 -210 -20 -203 0 -210 1 -210 20 0 19 7 20 210 20 203 0
210 -1 210 -20z m0 -50 c0 -19 -7 -20 -210 -20 -203 0 -210 1 -210 20 0 19 7
20 210 20 203 0 210 -1 210 -20z m0 -40 c0 -6 -77 -10 -210 -10 -133 0 -210 4
-210 10 0 6 77 10 210 10 133 0 210 -4 210 -10z m-102 -27 c-60 -2 -156 -2
-215 0 -60 1 -11 3 107 3 118 0 167 -2 108 -3z m102 -23 c0 -6 -77 -10 -210
-10 -133 0 -210 4 -210 10 0 6 77 10 210 10 133 0 210 -4 210 -10z m-102 -27
c-60 -2 -156 -2 -215 0 -60 1 -11 3 107 3 118 0 167 -2 108 -3z m102 -23 c0
-6 -77 -10 -210 -10 -133 0 -210 4 -210 10 0 6 77 10 210 10 133 0 210 -4 210
-10z m-102 -27 c-60 -2 -156 -2 -215 0 -60 1 -11 3 107 3 118 0 167 -2 108 -3z
m102 -23 c0 -6 -64 -10 -172 -10 -95 0 -190 -3 -210 -6 -31 -5 -38 -4 -38 10
0 14 23 16 210 16 133 0 210 -4 210 -10z m-2 -177 l-3 -148 -360 0 -360 0 -3
142 -3 143 283 3 c156 1 320 3 366 5 l83 2 -3 -147z"/>
</g>
</svg>
