<svg xmlns="http://www.w3.org/2000/svg" width="206.129" height="43.333" viewBox="0 0 206.129 43.333">
  <g id="Group_14126" data-name="Group 14126" transform="translate(-841.667 -861.605)">
    <g id="Group_14080" data-name="Group 14080" transform="translate(880.223 865.073)">
      <g id="Group_14078" data-name="Group 14078" transform="translate(1.399 0)">
        <path id="Path_13904" data-name="Path 13904" d="M1096.881,890.284h6.895c5.064,0,8.374,3.335,8.374,8.476,0,5.071-3.212,8.912-8.533,8.912h-6.736Zm3.76,14.351h2.819c3.334,0,4.807-2.479,4.807-5.866,0-2.84-1.38-5.448-4.785-5.448h-2.841Z" transform="translate(-1096.881 -889.262)" fill="#fff"/>
        <path id="Path_13905" data-name="Path 13905" d="M1212.746,883.756h3.614v3.223h-3.614Zm0,5.356h3.614v13.054h-3.614Z" transform="translate(-1194.607 -883.756)" fill="#fff"/>
        <path id="Path_13906" data-name="Path 13906" d="M1256.562,902.166v-18.41h3.614v18.41Z" transform="translate(-1231.563 -883.756)" fill="#fff"/>
        <path id="Path_13907" data-name="Path 13907" d="M1300.377,883.756h3.614v3.223h-3.614Zm0,5.356h3.614v13.054h-3.614Z" transform="translate(-1268.519 -883.756)" fill="#fff"/>
        <path id="Path_13908" data-name="Path 13908" d="M1352.07,927.8c0,4.191-1.547,6.842-6.491,6.842-4.766,0-5.706-2.662-5.831-4.135h3.684a2.08,2.08,0,0,0,2.309,1.507c2.346,0,2.788-1.43,2.788-3.989V927.4a3.862,3.862,0,0,1-3.679,1.834c-3.439,0-5.4-2.818-5.4-6.327,0-4.082,2.443-6.874,5.708-6.874,2.24,0,3.172,1.055,3.369,1.664.025-.354.117-1.148.142-1.362h3.428c-.022,1.164-.028,2.491-.028,3.746Zm-8.907-5.054c0,2.246,1.123,3.572,2.722,3.572,2.176,0,2.757-1.494,2.757-3.685s-.387-3.7-2.681-3.7C1344.393,918.927,1343.163,920.136,1343.163,922.745Z" transform="translate(-1301.476 -910.979)" fill="#fff"/>
        <path id="Path_13909" data-name="Path 13909" d="M1439.927,923.635c0,1.633.821,3.228,2.62,3.228a2.059,2.059,0,0,0,2.277-1.394h3.617c-.463,1.6-1.889,4.222-5.99,4.222-4.3,0-6.165-3.215-6.165-6.64,0-4.095,2.1-7.019,6.294-7.019,4.483,0,6.008,3.243,6.008,6.5a8.013,8.013,0,0,1-.047,1.1Zm5.042-2.22c-.025-1.52-.632-2.8-2.393-2.8-1.732,0-2.429,1.194-2.573,2.8Z" transform="translate(-1383.152 -910.979)" fill="#fff"/>
        <path id="Path_13910" data-name="Path 13910" d="M1531.066,919.623c0-1.11,0-2.324-.025-3.289h3.5a15.366,15.366,0,0,1,.139,1.663,3.984,3.984,0,0,1,3.787-1.966c2.622,0,4.326,1.772,4.326,5.052v8.3h-3.614v-7.9c0-1.468-.489-2.531-2.084-2.531-1.536,0-2.415.854-2.415,3.159v7.275h-3.614Z" transform="translate(-1463.072 -910.979)" fill="#fff"/>
        <path id="Path_13911" data-name="Path 13911" d="M1616.867,898.922h2.012v-3.535h3.614v3.535h2.557v2.717h-2.557v6.443c0,.991.3,1.376,1.38,1.376a6.677,6.677,0,0,0,.823-.04V911.9a8.224,8.224,0,0,1-2.43.249c-2.547,0-3.388-1.362-3.388-3.646v-6.867h-2.012Z" transform="translate(-1535.461 -893.566)" fill="#fff"/>
        <path id="Path_13912" data-name="Path 13912" d="M1725.3,907.672V890.284h4.659c2.172,3.9,6.186,10.945,6.985,12.84h.048c-.2-1.815-.193-4.834-.193-7.687v-5.153h3.407v17.388h-4.42c-1.868-3.4-6.316-11.486-7.177-13.495h-.047c.126,1.521.167,5.093.167,8.207v5.288Z" transform="translate(-1626.917 -889.262)" fill="#fff"/>
        <path id="Path_13913" data-name="Path 13913" d="M1850.32,922.836c0,3.95-2.364,6.855-6.5,6.855-4.049,0-6.411-2.888-6.411-6.785,0-4.028,2.436-6.874,6.582-6.874C1847.834,916.032,1850.32,918.744,1850.32,922.836Zm-9.242.025c0,2.513,1.081,4,2.822,4,1.769,0,2.752-1.49,2.752-3.979,0-2.732-1-4.024-2.8-4.024C1842.173,918.86,1841.078,920.1,1841.078,922.862Z" transform="translate(-1721.478 -910.979)" fill="#fff"/>
        <path id="Path_13914" data-name="Path 13914" d="M1927.133,898.922h2.012v-3.535h3.614v3.535h2.557v2.717h-2.557v6.443c0,.991.3,1.376,1.38,1.376a6.678,6.678,0,0,0,.823-.04V911.9a8.223,8.223,0,0,1-2.43.249c-2.547,0-3.388-1.362-3.388-3.646v-6.867h-2.012Z" transform="translate(-1797.154 -893.566)" fill="#fff"/>
        <path id="Path_13915" data-name="Path 13915" d="M1990.867,923.635c0,1.633.821,3.228,2.62,3.228a2.059,2.059,0,0,0,2.277-1.394h3.617c-.463,1.6-1.889,4.222-5.99,4.222-4.3,0-6.165-3.215-6.165-6.64,0-4.095,2.1-7.019,6.294-7.019,4.483,0,6.008,3.243,6.008,6.5a8.013,8.013,0,0,1-.047,1.1Zm5.042-2.22c-.025-1.52-.632-2.8-2.393-2.8-1.732,0-2.429,1.194-2.573,2.8Z" transform="translate(-1847.841 -910.979)" fill="#fff"/>
        <path id="Path_13916" data-name="Path 13916" d="M2079.566,925.464a2.26,2.26,0,0,0,2.471,1.624c1.334,0,1.82-.479,1.82-1.27,0-.838-.561-1.167-2.431-1.626-4.253-1.048-4.949-2.365-4.949-4.207,0-1.918,1.356-3.954,5.294-3.954,3.96,0,5.3,2.162,5.413,3.93h-3.437c-.115-.482-.437-1.394-2.137-1.394-1.2,0-1.581.529-1.581,1.116,0,.65.405.963,2.525,1.457,4.355,1.013,4.971,2.506,4.971,4.42,0,2.162-1.644,4.129-5.624,4.129-3.963,0-5.6-1.913-5.886-4.227Z" transform="translate(-1922.728 -910.979)" fill="#fff"/>
      </g>
      <g id="Group_14079" data-name="Group 14079" transform="translate(0 26.005)">
        <path id="Path_13917" data-name="Path 13917" d="M1097.313,1057.532c0,2.687-1.613,5-4.75,5-3.03,0-4.616-2.2-4.616-4.968,0-2.81,1.752-4.968,4.751-4.968C1095.523,1052.6,1097.313,1054.576,1097.313,1057.532Zm-7.21-.009c0,1.885.827,3.311,2.539,3.311,1.857,0,2.515-1.555,2.515-3.276,0-1.827-.748-3.262-2.548-3.262C1090.865,1054.3,1090.1,1055.643,1090.1,1057.523Z" transform="translate(-1087.947 -1052.17)" fill="#fff"/>
        <path id="Path_13918" data-name="Path 13918" d="M1168.676,1069.785c0-.616,0-1.291-.014-1.826h1.944a8.54,8.54,0,0,1,.077.924,2.212,2.212,0,0,1,2.1-1.092c1.456,0,2.4.984,2.4,2.806v4.612h-2.007v-4.389c0-.815-.272-1.406-1.157-1.406-.853,0-1.341.474-1.341,1.754v4.04h-2.007Z" transform="translate(-1156.026 -1064.985)" fill="#fff"/>
        <path id="Path_13919" data-name="Path 13919" d="M1233.086,1060.09v-10.223h2.007v10.223Z" transform="translate(-1210.364 -1049.867)" fill="#fff"/>
        <path id="Path_13920" data-name="Path 13920" d="M1268.78,1049.867h2.007v1.79h-2.007Zm0,2.974h2.007v7.249h-2.007Z" transform="translate(-1240.47 -1049.867)" fill="#fff"/>
        <path id="Path_13921" data-name="Path 13921" d="M1304.48,1069.785c0-.616,0-1.291-.014-1.826h1.944a8.635,8.635,0,0,1,.077.924,2.212,2.212,0,0,1,2.1-1.092c1.456,0,2.4.984,2.4,2.806v4.612h-2.007v-4.389c0-.815-.272-1.406-1.157-1.406-.853,0-1.341.474-1.341,1.754v4.04h-2.007Z" transform="translate(-1270.569 -1064.985)" fill="#fff"/>
        <path id="Path_13922" data-name="Path 13922" d="M1368.2,1072.013c0,.907.456,1.793,1.455,1.793a1.144,1.144,0,0,0,1.265-.774h2.009a3.176,3.176,0,0,1-3.326,2.345c-2.388,0-3.424-1.785-3.424-3.687,0-2.274,1.167-3.9,3.5-3.9,2.49,0,3.336,1.8,3.336,3.611a4.452,4.452,0,0,1-.026.611Zm2.8-1.233c-.014-.844-.351-1.554-1.329-1.554-.962,0-1.349.663-1.429,1.554Z" transform="translate(-1322.619 -1064.985)" fill="#fff"/>
        <path id="Path_13923" data-name="Path 13923" d="M1469.324,1059.417a3.873,3.873,0,0,1-4.164,3.113c-3.062,0-4.51-2.167-4.51-4.914,0-2.647,1.494-5.019,4.61-5.019,2.571,0,3.817,1.51,4.053,3.124h-2.088a1.893,1.893,0,0,0-2.032-1.486c-1.722,0-2.387,1.549-2.387,3.306,0,1.632.577,3.352,2.443,3.352a1.92,1.92,0,0,0,1.975-1.476Z" transform="translate(-1402.303 -1052.17)" fill="#fff"/>
        <path id="Path_13924" data-name="Path 13924" d="M1541.18,1071.57a3.591,3.591,0,1,1-3.514-3.779C1539.8,1067.791,1541.18,1069.3,1541.18,1071.57Zm-5.133.014c0,1.4.6,2.222,1.567,2.222.982,0,1.529-.827,1.529-2.21,0-1.517-.557-2.234-1.557-2.234C1536.656,1069.362,1536.048,1070.051,1536.048,1071.584Z" transform="translate(-1464.178 -1064.985)" fill="#fff"/>
        <path id="Path_13925" data-name="Path 13925" d="M1599.9,1069.925c0-.72,0-1.36-.014-1.966h1.969c.026.162.053.882.053,1.273a2.321,2.321,0,0,1,2.326-1.441v1.915c-1.456-.038-2.326.354-2.326,2.341v3.161H1599.9Z" transform="translate(-1519.738 -1064.985)" fill="#fff"/>
        <path id="Path_13926" data-name="Path 13926" d="M1645.873,1069.785c0-.616,0-1.291-.014-1.826h1.944a8.571,8.571,0,0,1,.077.924,2.212,2.212,0,0,1,2.1-1.092c1.456,0,2.4.984,2.4,2.806v4.612h-2.007v-4.389c0-.815-.272-1.406-1.157-1.406-.853,0-1.341.474-1.341,1.754v4.04h-2.007Z" transform="translate(-1558.516 -1064.985)" fill="#fff"/>
        <path id="Path_13927" data-name="Path 13927" d="M1709.591,1072.013c0,.907.456,1.793,1.455,1.793a1.144,1.144,0,0,0,1.265-.774h2.009a3.176,3.176,0,0,1-3.326,2.345c-2.388,0-3.424-1.785-3.424-3.687,0-2.274,1.167-3.9,3.5-3.9,2.49,0,3.336,1.8,3.336,3.611a4.452,4.452,0,0,1-.026.611Zm2.8-1.233c-.014-.844-.351-1.554-1.329-1.554-.962,0-1.349.663-1.429,1.554Z" transform="translate(-1610.565 -1064.985)" fill="#fff"/>
        <path id="Path_13928" data-name="Path 13928" d="M1771.3,1060.09v-10.223h2.007v10.223Z" transform="translate(-1664.315 -1049.867)" fill="#fff"/>
        <path id="Path_13929" data-name="Path 13929" d="M1806.991,1060.09v-10.223H1809v10.223Z" transform="translate(-1694.422 -1049.867)" fill="#fff"/>
        <path id="Path_13930" data-name="Path 13930" d="M1877.287,1063.149v-9.656h2.588c1.206,2.168,3.435,6.078,3.879,7.13h.026c-.109-1.007-.107-2.684-.107-4.269v-2.862h1.892v9.656h-2.454c-1.037-1.887-3.508-6.379-3.986-7.494h-.026c.07.845.093,2.828.093,4.557v2.937Z" transform="translate(-1753.713 -1052.925)" fill="#fff"/>
        <path id="Path_13931" data-name="Path 13931" d="M1958.079,1071.57a3.591,3.591,0,1,1-3.515-3.779C1956.7,1067.791,1958.079,1069.3,1958.079,1071.57Zm-5.133.014c0,1.4.6,2.222,1.567,2.222.982,0,1.529-.827,1.529-2.21,0-1.517-.557-2.234-1.557-2.234C1953.555,1069.362,1952.947,1070.051,1952.947,1071.584Z" transform="translate(-1815.81 -1064.985)" fill="#fff"/>
        <path id="Path_13932" data-name="Path 13932" d="M2012.1,1058.289h1.118v-1.963h2.007v1.963h1.42v1.509h-1.42v3.578c0,.55.168.764.766.764a3.736,3.736,0,0,0,.457-.022v1.381a4.566,4.566,0,0,1-1.349.138c-1.414,0-1.881-.756-1.881-2.025V1059.8H2012.1Z" transform="translate(-1867.42 -1055.315)" fill="#fff"/>
        <path id="Path_13933" data-name="Path 13933" d="M2058.855,1072.013c0,.907.456,1.793,1.455,1.793a1.144,1.144,0,0,0,1.265-.774h2.009a3.176,3.176,0,0,1-3.326,2.345c-2.388,0-3.424-1.785-3.424-3.687,0-2.274,1.167-3.9,3.5-3.9,2.49,0,3.337,1.8,3.337,3.611a4.452,4.452,0,0,1-.026.611Zm2.8-1.233c-.014-.844-.351-1.554-1.329-1.554-.962,0-1.349.663-1.429,1.554Z" transform="translate(-1905.151 -1064.985)" fill="#fff"/>
        <path id="Path_13934" data-name="Path 13934" d="M2119.476,1073.029a1.255,1.255,0,0,0,1.372.9c.741,0,1.011-.266,1.011-.705,0-.465-.311-.648-1.35-.9-2.362-.582-2.748-1.313-2.748-2.336,0-1.065.753-2.2,2.939-2.2s2.943,1.2,3.006,2.183H2121.8c-.064-.268-.243-.774-1.187-.774-.664,0-.878.294-.878.62,0,.361.225.535,1.4.809,2.419.563,2.761,1.392,2.761,2.454,0,1.2-.913,2.293-3.123,2.293s-3.109-1.062-3.269-2.348Z" transform="translate(-1956.323 -1064.985)" fill="#fff"/>
      </g>
    </g>
    <g id="Group_14125" data-name="Group 14125" transform="translate(841.667 861.605)">
      <g id="Group_14081" data-name="Group 14081" transform="translate(13.305 0.63)">
        <rect id="Rectangle_1006" data-name="Rectangle 1006" width="28.649" height="0.96" transform="translate(0 28.647) rotate(-89.423)" fill="#fff"/>
      </g>
      <g id="Group_14082" data-name="Group 14082" transform="translate(0.632 28.647)">
        <rect id="Rectangle_1007" data-name="Rectangle 1007" width="32.176" height="0.96" transform="translate(0 0.312) rotate(-0.555)" fill="#fff"/>
      </g>
      <g id="Group_14083" data-name="Group 14083" transform="translate(0 0)">
        <path id="Path_13935" data-name="Path 13935" d="M873.9,904.938H842.886a1.22,1.22,0,0,1-1.219-1.219V862.824a1.22,1.22,0,0,1,1.219-1.219H873.9a1.22,1.22,0,0,1,1.219,1.219v40.895A1.22,1.22,0,0,1,873.9,904.938Zm-31.009-42.372a.262.262,0,0,0-.259.259v40.895a.262.262,0,0,0,.259.259H873.9a.262.262,0,0,0,.259-.259V862.824a.262.262,0,0,0-.259-.259Z" transform="translate(-841.667 -861.605)" fill="#fff"/>
      </g>
      <g id="Group_14123" data-name="Group 14123" transform="translate(13.93 1.443)">
        <g id="Group_14084" data-name="Group 14084" transform="translate(0)">
          <rect id="Rectangle_1008" data-name="Rectangle 1008" width="18.881" height="0.222" fill="#fff"/>
        </g>
        <g id="Group_14085" data-name="Group 14085" transform="translate(0 0.718)">
          <rect id="Rectangle_1009" data-name="Rectangle 1009" width="18.881" height="0.222" fill="#fff"/>
        </g>
        <g id="Group_14086" data-name="Group 14086" transform="translate(0 1.436)">
          <rect id="Rectangle_1010" data-name="Rectangle 1010" width="18.881" height="0.222" fill="#fff"/>
        </g>
        <g id="Group_14087" data-name="Group 14087" transform="translate(0 2.154)">
          <rect id="Rectangle_1011" data-name="Rectangle 1011" width="18.881" height="0.222" fill="#fff"/>
        </g>
        <g id="Group_14088" data-name="Group 14088" transform="translate(0 2.872)">
          <rect id="Rectangle_1012" data-name="Rectangle 1012" width="18.881" height="0.222" fill="#fff"/>
        </g>
        <g id="Group_14089" data-name="Group 14089" transform="translate(0 3.589)">
          <rect id="Rectangle_1013" data-name="Rectangle 1013" width="18.881" height="0.222" fill="#fff"/>
        </g>
        <g id="Group_14090" data-name="Group 14090" transform="translate(0 4.307)">
          <rect id="Rectangle_1014" data-name="Rectangle 1014" width="18.881" height="0.222" fill="#fff"/>
        </g>
        <g id="Group_14091" data-name="Group 14091" transform="translate(0 5.025)">
          <rect id="Rectangle_1015" data-name="Rectangle 1015" width="18.881" height="0.222" fill="#fff"/>
        </g>
        <g id="Group_14122" data-name="Group 14122" transform="translate(0 5.743)">
          <g id="Group_14092" data-name="Group 14092" transform="translate(0)">
            <rect id="Rectangle_1016" data-name="Rectangle 1016" width="18.881" height="0.222" fill="#fff"/>
          </g>
          <g id="Group_14093" data-name="Group 14093" transform="translate(0 0.718)">
            <rect id="Rectangle_1017" data-name="Rectangle 1017" width="18.881" height="0.222" fill="#fff"/>
          </g>
          <g id="Group_14094" data-name="Group 14094" transform="translate(0 1.436)">
            <rect id="Rectangle_1018" data-name="Rectangle 1018" width="18.881" height="0.222" fill="#fff"/>
          </g>
          <g id="Group_14095" data-name="Group 14095" transform="translate(0 2.154)">
            <rect id="Rectangle_1019" data-name="Rectangle 1019" width="18.881" height="0.222" fill="#fff"/>
          </g>
          <g id="Group_14096" data-name="Group 14096" transform="translate(0 2.872)">
            <rect id="Rectangle_1020" data-name="Rectangle 1020" width="18.881" height="0.222" fill="#fff"/>
          </g>
          <g id="Group_14097" data-name="Group 14097" transform="translate(0 3.589)">
            <rect id="Rectangle_1021" data-name="Rectangle 1021" width="18.881" height="0.222" fill="#fff"/>
          </g>
          <g id="Group_14098" data-name="Group 14098" transform="translate(0 4.307)">
            <rect id="Rectangle_1022" data-name="Rectangle 1022" width="18.881" height="0.222" fill="#fff"/>
          </g>
          <g id="Group_14099" data-name="Group 14099" transform="translate(0 5.025)">
            <rect id="Rectangle_1023" data-name="Rectangle 1023" width="18.881" height="0.222" fill="#fff"/>
          </g>
          <g id="Group_14100" data-name="Group 14100" transform="translate(0 5.743)">
            <rect id="Rectangle_1024" data-name="Rectangle 1024" width="18.881" height="0.222" fill="#fff"/>
          </g>
          <g id="Group_14101" data-name="Group 14101" transform="translate(0 6.461)">
            <rect id="Rectangle_1025" data-name="Rectangle 1025" width="18.881" height="0.222" fill="#fff"/>
          </g>
          <g id="Group_14102" data-name="Group 14102" transform="translate(0 7.179)">
            <rect id="Rectangle_1026" data-name="Rectangle 1026" width="18.881" height="0.222" fill="#fff"/>
          </g>
          <g id="Group_14103" data-name="Group 14103" transform="translate(0 7.897)">
            <rect id="Rectangle_1027" data-name="Rectangle 1027" width="18.881" height="0.222" fill="#fff"/>
          </g>
          <g id="Group_14104" data-name="Group 14104" transform="translate(0 8.615)">
            <rect id="Rectangle_1028" data-name="Rectangle 1028" width="18.881" height="0.222" fill="#fff"/>
          </g>
          <g id="Group_14105" data-name="Group 14105" transform="translate(0 9.333)">
            <rect id="Rectangle_1029" data-name="Rectangle 1029" width="18.881" height="0.222" fill="#fff"/>
          </g>
          <g id="Group_14106" data-name="Group 14106" transform="translate(0 10.051)">
            <rect id="Rectangle_1030" data-name="Rectangle 1030" width="18.881" height="0.222" fill="#fff"/>
          </g>
          <g id="Group_14107" data-name="Group 14107" transform="translate(0 10.768)">
            <rect id="Rectangle_1031" data-name="Rectangle 1031" width="18.881" height="0.222" fill="#fff"/>
          </g>
          <g id="Group_14108" data-name="Group 14108" transform="translate(0 11.486)">
            <rect id="Rectangle_1032" data-name="Rectangle 1032" width="18.881" height="0.222" fill="#fff"/>
          </g>
          <g id="Group_14109" data-name="Group 14109" transform="translate(0 12.204)">
            <rect id="Rectangle_1033" data-name="Rectangle 1033" width="18.881" height="0.222" fill="#fff"/>
          </g>
          <g id="Group_14110" data-name="Group 14110" transform="translate(0 12.922)">
            <rect id="Rectangle_1034" data-name="Rectangle 1034" width="18.881" height="0.222" fill="#fff"/>
          </g>
          <g id="Group_14111" data-name="Group 14111" transform="translate(0 13.64)">
            <rect id="Rectangle_1035" data-name="Rectangle 1035" width="18.881" height="0.222" fill="#fff"/>
          </g>
          <g id="Group_14112" data-name="Group 14112" transform="translate(0 14.358)">
            <rect id="Rectangle_1036" data-name="Rectangle 1036" width="18.881" height="0.222" fill="#fff"/>
          </g>
          <g id="Group_14113" data-name="Group 14113" transform="translate(0 15.076)">
            <rect id="Rectangle_1037" data-name="Rectangle 1037" width="18.881" height="0.222" fill="#fff"/>
          </g>
          <g id="Group_14114" data-name="Group 14114" transform="translate(0 15.794)">
            <rect id="Rectangle_1038" data-name="Rectangle 1038" width="18.881" height="0.222" fill="#fff"/>
          </g>
          <g id="Group_14115" data-name="Group 14115" transform="translate(0 16.512)">
            <rect id="Rectangle_1039" data-name="Rectangle 1039" width="18.881" height="0.222" fill="#fff"/>
          </g>
          <g id="Group_14116" data-name="Group 14116" transform="translate(0 17.23)">
            <rect id="Rectangle_1040" data-name="Rectangle 1040" width="18.881" height="0.222" fill="#fff"/>
          </g>
          <g id="Group_14117" data-name="Group 14117" transform="translate(0 17.947)">
            <rect id="Rectangle_1041" data-name="Rectangle 1041" width="18.881" height="0.222" fill="#fff"/>
          </g>
          <g id="Group_14118" data-name="Group 14118" transform="translate(0 18.665)">
            <rect id="Rectangle_1042" data-name="Rectangle 1042" width="18.881" height="0.222" fill="#fff"/>
          </g>
          <g id="Group_14119" data-name="Group 14119" transform="translate(0 19.383)">
            <rect id="Rectangle_1043" data-name="Rectangle 1043" width="18.881" height="0.222" fill="#fff"/>
          </g>
          <g id="Group_14120" data-name="Group 14120" transform="translate(0 20.101)">
            <rect id="Rectangle_1044" data-name="Rectangle 1044" width="18.881" height="0.222" fill="#fff"/>
          </g>
          <g id="Group_14121" data-name="Group 14121" transform="translate(0 20.819)">
            <rect id="Rectangle_1045" data-name="Rectangle 1045" width="18.881" height="0.222" fill="#fff"/>
          </g>
        </g>
      </g>
      <g id="Group_14124" data-name="Group 14124" transform="translate(13.93 28.871)">
        <rect id="Rectangle_1046" data-name="Rectangle 1046" width="18.881" height="0.222" fill="#fff"/>
      </g>
    </g>
  </g>
</svg>
