<svg xmlns="http://www.w3.org/2000/svg" width="16.176" height="14.272" viewBox="0 0 16.176 14.272">
  <g id="Group_2618" data-name="Group 2618" transform="translate(-410 -2340)">
    <g id="Edit" transform="translate(410 2340)">
      <path id="Edit-2" data-name="Edit" d="M10.136,14.273a.816.816,0,1,1,0-1.623h5.132a.816.816,0,1,1,0,1.623ZM.762,13.936.047,11.2A1.54,1.54,0,0,1,.409,9.777l5.6-6.393a.308.308,0,0,1,.381-.043L8.744,5a.833.833,0,0,0,.582.145.775.775,0,0,0,.734-.827.809.809,0,0,0-.3-.5L7.476,2.191a.276.276,0,0,1-.057-.417L8.3.759a2.534,2.534,0,0,1,3.4-.2l1.326.929a2.424,2.424,0,0,1,1.03,1.389,1.74,1.74,0,0,1-.438,1.619L5.73,13.5a1.988,1.988,0,0,1-1.469.648l-3.147.034A.353.353,0,0,1,.762,13.936Z" transform="translate(0 0)" fill="#7a6563"/>
    </g>
  </g>
</svg>
