<svg xmlns="http://www.w3.org/2000/svg" width="18.75" height="18.75" viewBox="0 0 18.75 18.75">
    <path id="Icon_awesome-linkedin-in" data-name="Icon awesome-linkedin-in" d="M4.2,18.75H.31V6.232H4.2ZM2.251,4.525A2.262,2.262,0,1,1,4.5,2.252,2.27,2.27,0,0,1,2.251,4.525ZM18.746,18.75H14.867V12.657c0-1.452-.029-3.315-2.021-3.315-2.021,0-2.331,1.578-2.331,3.21v6.2H6.632V6.232H10.36V7.94h.054a4.085,4.085,0,0,1,3.678-2.021c3.934,0,4.657,2.591,4.657,5.956V18.75Z" transform="translate(0 -0.001)" fill="#fff" opacity="0.9" />
</svg>
