<svg xmlns="http://www.w3.org/2000/svg" width="14.765" height="17.273" viewBox="0 0 14.765 17.273">
  <path id="Subtraction_5" data-name="Subtraction 5" d="M-9978.012-18594.5c-1.5,0-6.88-4.631-6.88-9.332a6.924,6.924,0,0,1,6.88-6.941,6.932,6.932,0,0,1,6.885,6.941C-9971.127-18599.133-9976.515-18594.5-9978.012-18594.5Zm0-12.1a2.722,2.722,0,0,0-2.709,2.715,2.721,2.721,0,0,0,2.714,2.709,2.691,2.691,0,0,0,1.919-.8,2.69,2.69,0,0,0,.79-1.918A2.714,2.714,0,0,0-9978.012-18606.605Z" transform="translate(9985.392 18611.275)" fill="#fff" stroke="rgba(0,0,0,0)" stroke-width="1"/>
</svg>
