<svg xmlns="http://www.w3.org/2000/svg" width="72" height="72" viewBox="0 0 72 72">
    <g id="Group_721" data-name="Group 721" transform="translate(-1176 -1371)">
        <rect id="Rectangle_888" data-name="Rectangle 888" width="72" height="72" transform="translate(1176 1371)" fill="#002fbd" />
        <g id="Group_702" data-name="Group 702" transform="translate(-86.436 62.99)">
            <path id="Path_11952" data-name="Path 11952" d="M1277.437,1340.675q0-7.915,0-15.83a3.717,3.717,0,0,1,3.007-3.757,4.224,4.224,0,0,1,.851-.066c5.1,0,10.193,0,15.289-.012.446,0,.6.113.591.578-.024,1.984-.02,3.969-.007,5.953a4.418,4.418,0,0,0,1.735,3.692,4.1,4.1,0,0,0,2.5.887c1.924.013,3.848,0,5.773.006.618,0,.622.005.622.635,0,2.481-.008,4.961.008,7.441,0,.412-.072.574-.54.557a13.942,13.942,0,0,0-9.558,3.228,1.523,1.523,0,0,1-1.031.347q-6.043-.015-12.087-.006c-.18,0-.361,0-.541.005-.53.03-.807.3-.8.773.008.452.282.712.788.738.165.009.331,0,.5,0h10.373c.135,0,.271,0,.406,0,.318,0,.433.1.215.394a14.118,14.118,0,0,0-1.757,3.036c-.126.306-.355.314-.622.314q-4.33,0-8.659,0a2.155,2.155,0,0,0-.713.076.716.716,0,0,0-.522.8.7.7,0,0,0,.615.676,2.631,2.631,0,0,0,.539.025h8.073c.608,0,.612.013.484.611a14.107,14.107,0,0,0,.578,7.933c.223.611.223.613-.432.613q-5.863,0-11.726,0a3.717,3.717,0,0,1-3.956-3.954Q1277.432,1348.522,1277.437,1340.675Zm11.848-1.562h-2.433c-.916,0-1.833-.006-2.749.005a.751.751,0,0,0-.842.693.769.769,0,0,0,.738.854,2.175,2.175,0,0,0,.359.02q4.912,0,9.824,0a1.665,1.665,0,0,0,.62-.091.7.7,0,0,0,.5-.767.734.734,0,0,0-.653-.7,2.7,2.7,0,0,0-.494-.018Z" transform="translate(0 0)" fill="#fcfafa" />
            <path id="Path_11953" data-name="Path 11953" d="M1513.016,1339.257c0-.826,0-1.653,0-2.479,0-.126-.065-.305.093-.361s.227.118.315.21q3.606,3.784,7.206,7.574c.077.081.222.157.149.294-.054.1-.19.064-.291.064-1.622,0-3.245.022-4.867-.01a2.743,2.743,0,0,1-2.6-2.813c-.02-.826,0-1.652,0-2.478Z" transform="translate(-214.276 -14.006)" fill="#fcfafa" />
            <g id="Group_701" data-name="Group 701" transform="translate(1294.21 1342.339)">
                <path id="Path_11954" data-name="Path 11954" d="M1554.192,1643.953a3.822,3.822,0,0,0-3.887,3.851,3.874,3.874,0,1,0,3.887-3.851Z" transform="translate(-1542.413 -1636.09)" fill="#c8d3d5" />
                <path id="Path_11955" data-name="Path 11955" d="M1487.863,1567.851a11.96,11.96,0,0,0-3.62-7.291,12.464,12.464,0,0,0-18.5,1.11,11.855,11.855,0,0,0-2.547,9.771,12.212,12.212,0,0,0,7.8,9.63,14.9,14.9,0,0,0,3.135.8h2.707a15.016,15.016,0,0,0,3.556-.959A12.484,12.484,0,0,0,1487.863,1567.851Zm-6.38,7.312a.744.744,0,0,1-1.221.1c-.692-.683-1.383-1.369-2.061-2.066-.159-.164-.263-.166-.451-.041a5.382,5.382,0,1,1-3.682-9.808,3.916,3.916,0,0,1,.653-.048,5.408,5.408,0,0,1,5.379,4.75,5.224,5.224,0,0,1-.871,3.619.318.318,0,0,0,.054.493c.692.671,1.369,1.357,2.047,2.042A.734.734,0,0,1,1481.483,1575.163Z" transform="translate(-1462.999 -1556.966)" fill="#c8d3d5" />
            </g>
        </g>
    </g>
</svg>
