<svg xmlns="http://www.w3.org/2000/svg" width="72" height="72" viewBox="0 0 72 72">
    <g id="Group_720" data-name="Group 720" transform="translate(-1176 -1141)">
        <rect id="Rectangle_890" data-name="Rectangle 890" width="72" height="72" transform="translate(1176 1141)" fill="#002fbd" />
        <g id="Group_704" data-name="Group 704" transform="translate(-86.436 419.977)">
            <path id="Path_11959" data-name="Path 11959" d="M1277.437,753.237q0-8.136,0-16.272a3.821,3.821,0,0,1,3.091-3.862,4.334,4.334,0,0,1,.875-.068c5.239,0,10.477,0,15.716-.012.458,0,.614.116.608.594-.025,2.04-.02,4.08-.007,6.119a4.541,4.541,0,0,0,1.783,3.8,4.216,4.216,0,0,0,2.574.911c1.978.013,3.956,0,5.934.007.635,0,.639.005.64.653,0,2.55-.008,5.1.009,7.649,0,.424-.074.59-.555.572a14.33,14.33,0,0,0-9.825,3.318,1.566,1.566,0,0,1-1.06.357q-6.212-.015-12.424-.006c-.185,0-.371,0-.556.006-.545.03-.83.309-.821.795.008.465.29.731.81.759.17.009.34.005.51.005H1295.4c.139,0,.278,0,.417,0,.327,0,.445.1.221.405a14.508,14.508,0,0,0-1.806,3.12c-.13.314-.365.323-.639.322q-4.451,0-8.9,0a2.217,2.217,0,0,0-.733.078.736.736,0,0,0-.537.818.717.717,0,0,0,.632.695,2.7,2.7,0,0,0,.554.026l8.3,0c.625,0,.63.013.5.628a14.5,14.5,0,0,0,.594,8.155c.229.628.229.63-.444.63q-6.027,0-12.053,0a3.821,3.821,0,0,1-4.066-4.064Q1277.432,761.3,1277.437,753.237Zm12.179-1.605h-2.5c-.942,0-1.884-.006-2.826.005a.772.772,0,0,0-.865.713.791.791,0,0,0,.758.878,2.223,2.223,0,0,0,.369.02q5.049,0,10.1,0a1.711,1.711,0,0,0,.637-.094.722.722,0,0,0,.512-.788.755.755,0,0,0-.672-.717,2.772,2.772,0,0,0-.508-.019Z" transform="translate(0 0)" fill="#fcfafa" />
            <path id="Path_11960" data-name="Path 11960" d="M1513.017,751.349c0-.849,0-1.7,0-2.548,0-.129-.067-.314.1-.371s.233.121.323.216q3.707,3.89,7.407,7.785c.079.083.228.161.153.3-.056.1-.2.066-.3.066-1.668,0-3.336.022-5-.01a2.82,2.82,0,0,1-2.675-2.892c-.021-.849,0-1.7,0-2.548Z" transform="translate(-213.682 -13.967)" fill="#fcfafa" />
            <path id="Path_11961" data-name="Path 11961" d="M1488.557,980.168a12.294,12.294,0,0,0-3.72-7.495,12.812,12.812,0,0,0-19.017,1.141,12.186,12.186,0,0,0-2.618,10.044,12.552,12.552,0,0,0,8.022,9.9,15.309,15.309,0,0,0,3.222.821h2.782a15.452,15.452,0,0,0,3.655-.986A12.833,12.833,0,0,0,1488.557,980.168Zm-7.028,5.342a5.9,5.9,0,0,1-4.911,4.174,3.564,3.564,0,0,1-.758.045,6,6,0,0,1-5.94-5.029,5.526,5.526,0,0,1,.483-3.136,23.525,23.525,0,0,1,2.258-3.936q1.26-1.843,2.694-3.556a.566.566,0,0,1,.933-.007,41.567,41.567,0,0,1,4.167,5.909,14.624,14.624,0,0,1,1.058,2.293A4.836,4.836,0,0,1,1481.529,985.51Z" transform="translate(-168.32 -214.031)" fill="#c8d3d5" />
            <path id="Path_11962" data-name="Path 11962" d="M1558.171,1127.161h-.066a4.395,4.395,0,0,1-4.115-3.391,3.968,3.968,0,0,1-.1-.966.528.528,0,0,1,.536-.565.538.538,0,0,1,.548.557,3.272,3.272,0,0,0,1.758,2.89,3.454,3.454,0,0,0,1.505.391c.388.025.588.238.572.579C1558.788,1126.97,1558.545,1127.163,1558.171,1127.161Z" transform="translate(-250.761 -353.05)" fill="#c8d3d5" />
        </g>
    </g>
</svg>
