<svg xmlns="http://www.w3.org/2000/svg" width="13.903" height="17.872" viewBox="0 0 13.903 17.872">
    <path id="Icon_metro-pinterest" data-name="Icon metro-pinterest" d="M11.712,13.361c-.47,2.461-1.043,4.82-2.741,6.052-.524-3.719.769-6.511,1.371-9.476-1.025-1.725.123-5.193,2.283-4.338,2.658,1.051-2.3,6.409,1.028,7.079,3.477.7,4.9-6.032,2.74-8.22C13.277,1.3,7.325,4.384,8.058,8.91c.178,1.106,1.321,1.441.457,2.968C6.521,11.437,5.926,9.864,6,7.768A6.708,6.708,0,0,1,12.053,1.6c3.754-.421,7.277,1.379,7.764,4.909.548,3.986-1.694,8.3-5.709,7.993a4.861,4.861,0,0,1-2.4-1.143Z" transform="translate(-5.996 -1.542)" fill="#fff" opacity="0.9" />
</svg>
