<svg id="Group_2614" data-name="Group 2614" xmlns="http://www.w3.org/2000/svg" width="76.781" height="79.47" viewBox="0 0 76.781 79.47">
    <path id="Path_12506" data-name="Path 12506" d="M3662.974,789.744h-34.369c-1.223,0-1.226,0-1.226-1.211q0-23.468,0-46.937c0-1.221,0-1.225,1.212-1.225h68.823c1.223,0,1.226,0,1.226,1.211q0,23.468,0,46.937c0,1.221,0,1.225-1.213,1.225Zm-8.112-25.173c0,2.7-.021,4.894,0,7.087a8.129,8.129,0,1,0,3.434-6.351c-.2.138-.39.429-.658.3s-.158-.457-.159-.7c-.008-2.279-.042-4.56.007-6.838a5.275,5.275,0,0,1,3.4-4.989,5.49,5.49,0,0,1,5.95,1.111,5.551,5.551,0,0,1,1.722,3.879,1.327,1.327,0,0,0,1.407,1.393,1.381,1.381,0,0,0,1.154-1.546,8.1,8.1,0,0,0-16.125-.789C3654.708,759.78,3654.96,762.431,3654.863,764.571Zm20.522-6.382c0,2.136-.01,4.273,0,6.41.009,1.256.513,1.752,1.78,1.763,1.709.014,3.419-.005,5.128.009a5.483,5.483,0,0,1,5.248,4.121,5.556,5.556,0,0,1-9.129,5.5,5.469,5.469,0,0,1-1.8-3.926,1.345,1.345,0,0,0-1.378-1.431,1.376,1.376,0,0,0-1.189,1.52,8.126,8.126,0,1,0,9.068-8.29,31.286,31.286,0,0,0-4.095-.1c-.758.011-1.049-.2-1.038-1.005.042-3.019.037-6.039,0-9.058-.009-.763.2-1.047,1.006-1.034,2.648.044,5.3.02,7.948.011a4.173,4.173,0,0,0,1.011-.109,1.229,1.229,0,0,0,.025-2.382,3.492,3.492,0,0,0-.924-.115q-4.872-.012-9.742,0c-1.465,0-1.92.471-1.924,1.965C3675.379,754.087,3675.384,756.138,3675.385,758.189Zm-26,13.612a5.522,5.522,0,0,1-4.574,5.577,5.59,5.59,0,0,1-6.225-3.685,9.081,9.081,0,0,1-.3-1.847,1.306,1.306,0,0,0-1.407-1.2,1.363,1.363,0,0,0-1.137,1.479,8.061,8.061,0,0,0,9.02,7.8,8.085,8.085,0,0,0,4.311-14.211c-.634-.558-.627-.8.006-1.321a7.571,7.571,0,0,0,2.886-6.391,8.1,8.1,0,0,0-9.333-7.8,8.261,8.261,0,0,0-6.9,7.793,1.4,1.4,0,0,0,1.151,1.479,1.333,1.333,0,0,0,1.414-1.2,4.178,4.178,0,0,0,.039-.511,5.552,5.552,0,1,1,5.7,6,1.358,1.358,0,0,0-1.435,1.294c0,.7.571,1.212,1.438,1.3.085.009.171.005.257.011A5.48,5.48,0,0,1,3649.387,771.8Z" transform="translate(-3627.363 -715.746)" fill="#002fbd" />
    <path id="Path_12507" data-name="Path 12507" d="M3662.961,654.6h-34.369c-1.263,0-1.265,0-1.265-1.258,0-3.847.019-7.695-.016-11.542-.007-.788.246-1.033,1.024-1.017,2.108.044,4.218-.007,6.326.027.669.011.913-.2.886-.879-.044-1.11-.025-2.223-.006-3.334a4.164,4.164,0,0,1,8.32-.025c.046,1.613.046,1.615-1.594,1.608-1.17-.005-1.283.107-1.277-1.175a1.362,1.362,0,0,0-1.294-1.519,1.39,1.39,0,0,0-1.293,1.527c-.03,1.025.006,2.052-.016,3.077-.011.507.176.715.7.711q3.334-.024,6.669,0c.568.005.747-.221.735-.763-.024-1.139-.019-2.28,0-3.42a4.16,4.16,0,0,1,8.314-.077c.036,1.892.122,1.613-1.562,1.632-1.185.013-1.185,0-1.291-1.233a1.408,1.408,0,0,0-1.28-1.459,1.378,1.378,0,0,0-1.317,1.5c-.033,1,.02,2-.022,2.992-.027.646.225.832.847.828,3.505-.022,7.01-.01,10.516-.01,3.163,0,6.327-.016,9.49.013.689.006.975-.18.941-.911-.051-1.109-.028-2.223-.007-3.334a4.161,4.161,0,0,1,8.311-.047c.041,1.948.126,1.638-1.617,1.66-1.167.014-1.167,0-1.23-1.119-.055-.969-.592-1.6-1.341-1.573-.724.025-1.239.632-1.262,1.558-.026,1,.01,2-.016,2.992-.014.536.156.773.73.768,2.222-.022,4.446-.018,6.668,0,.516,0,.711-.194.7-.706q-.03-1.752,0-3.505a4.16,4.16,0,0,1,8.314-.013c.031,1.854.12,1.585-1.594,1.6-1.181.01-1.278.1-1.271-1.178a1.359,1.359,0,0,0-1.3-1.513c-.725.007-1.261.613-1.287,1.532-.029,1,.024,2-.021,2.992-.031.683.294.8.879.795,3.505-.017,7.01-.008,10.516-.008,2.3,0,2.3,0,2.3,2.278,0,3.477-.026,6.954.018,10.43.011.861-.24,1.113-1.107,1.111Q3680.232,654.576,3662.961,654.6Z" transform="translate(-3627.311 -632.59)" fill="#002fbd" />
    <path id="Path_12508" data-name="Path 12508" d="M3676.347,749.006H3640.61c-1.251,0-1.258,0-1.251-1.27.01-1.78-.173-1.583,1.62-1.584q33.514-.006,67.028,0c.342,0,.686.016,1.026-.012a1.423,1.423,0,0,0,1.457-1.476c.026-.34.011-.684.011-1.026q0-30.778,0-61.556c0-.313.015-.627,0-.94-.02-.472.2-.663.665-.659,2.7.023,2.179-.3,2.181,2.043q.023,32.445.009,64.891c0,.313-.015.627,0,.94.02.478-.212.67-.672.651-.284-.012-.57,0-.855,0Z" transform="translate(-3636.605 -669.536)" fill="#002fbd" />
    <path id="Path_12509" data-name="Path 12509" d="M3759.13,859.651a5.531,5.531,0,1,1,5.473,5.567A5.455,5.455,0,0,1,3759.13,859.651Z" transform="translate(-3729.014 -803.536)" fill="#002fbd" />
</svg>
