<svg xmlns="http://www.w3.org/2000/svg" width="17.412" height="17.412" viewBox="0 0 17.412 17.412">
    <path id="Icon_metro-youtube" data-name="Icon metro-youtube" d="M7.556,1.928,6.38,4.262,5.2,1.928H3.7l2.121,3.7.012-.007V8.457H6.924V5.616l.012.007,2.121-3.7ZM10.733,4.1a.551.551,0,0,1,.544.544V6.825a.544.544,0,0,1-1.088,0V4.649A.551.551,0,0,1,10.733,4.1Zm0-1.088A1.637,1.637,0,0,0,9.1,4.649V6.825a1.632,1.632,0,0,0,3.265,0V4.649a1.637,1.637,0,0,0-1.632-1.632Zm4.9,0V7.3c-.475.4-1.088.635-1.088-.776V3.016H13.453V6.746h0c.017.9.206,2.519,2.175,1.2v.51h1.088V3.016ZM17.262,13.9a.545.545,0,0,0-.544.544v.544h1.088v-.544A.545.545,0,0,0,17.262,13.9Zm-4.9.544V17.3c.368.368,1.088.408,1.088-.136V14.613C13.453,14.069,12.909,13.9,12.365,14.443Zm7.529-2.626a2.263,2.263,0,0,0-2.225-2.182c-1.187-.059-3.9-.089-6.287-.089s-5.293.03-6.48.089a2.263,2.263,0,0,0-2.225,2.182c-.071,1.277-.107,1.74-.107,2.379s.036,1.6.107,2.874A2.263,2.263,0,0,0,4.9,19.251c1.187.059,4.095.089,6.48.089s5.1-.03,6.287-.089a2.263,2.263,0,0,0,2.225-2.182q.089-1.6.089-2.874c0-.851-.03-1.315-.089-2.379ZM5.835,18.252H4.747V12.81H3.659V11.722H6.924V12.81H5.835Zm4.353,0H9.1v-.509c-2.069,1.161-2.158.037-2.175-.862h0V13.9H8.012v3c0,.657.613.594,1.088.2V13.9h1.088Zm4.353-1.1c0,1.137-1.165,1.469-2.176.585v.519H11.277V11.722h1.088v1.768c1.088-1.088,2.176-.68,2.176.408Zm4.353-2.161v.544H16.718v1.088a.544.544,0,0,0,1.088,0v-.544h1.088v.544a1.632,1.632,0,0,1-3.265,0V14.443a1.632,1.632,0,0,1,3.265,0v.544Z" transform="translate(-2.571 -1.928)" fill="#fff" opacity="0.9" />
</svg>
