<svg xmlns="http://www.w3.org/2000/svg" width="28.5" height="28.5" viewBox="0 0 28.5 28.5">
    <path id="Icon_material-blur-on" data-name="Icon material-blur-on" d="M9,19.5A1.5,1.5,0,1,0,10.5,21,1.5,1.5,0,0,0,9,19.5Zm0,6A1.5,1.5,0,1,0,10.5,27,1.5,1.5,0,0,0,9,25.5Zm0-12A1.5,1.5,0,1,0,10.5,15,1.5,1.5,0,0,0,9,13.5Zm-4.5.75a.75.75,0,1,0,.75.75A.743.743,0,0,0,4.5,14.25ZM9,7.5A1.5,1.5,0,1,0,10.5,9,1.5,1.5,0,0,0,9,7.5Zm22.5,8.25a.75.75,0,1,0-.75-.75A.743.743,0,0,0,31.5,15.75ZM21,10.5A1.5,1.5,0,1,0,19.5,9,1.5,1.5,0,0,0,21,10.5Zm0-5.25a.75.75,0,1,0-.75-.75A.743.743,0,0,0,21,5.25Zm-16.5,15a.75.75,0,1,0,.75.75A.743.743,0,0,0,4.5,20.25ZM15,30.75a.75.75,0,1,0,.75.75A.743.743,0,0,0,15,30.75Zm0-25.5a.75.75,0,1,0-.75-.75A.743.743,0,0,0,15,5.25Zm0,5.25A1.5,1.5,0,1,0,13.5,9,1.5,1.5,0,0,0,15,10.5Zm0,8.25A2.25,2.25,0,1,0,17.25,21,2.247,2.247,0,0,0,15,18.75Zm12,.75A1.5,1.5,0,1,0,28.5,21,1.5,1.5,0,0,0,27,19.5Zm0,6A1.5,1.5,0,1,0,28.5,27,1.5,1.5,0,0,0,27,25.5Zm0-12A1.5,1.5,0,1,0,28.5,15,1.5,1.5,0,0,0,27,13.5Zm0-6A1.5,1.5,0,1,0,28.5,9,1.5,1.5,0,0,0,27,7.5Zm4.5,12.75a.75.75,0,1,0,.75.75A.743.743,0,0,0,31.5,20.25ZM21,25.5A1.5,1.5,0,1,0,22.5,27,1.5,1.5,0,0,0,21,25.5Zm0,5.25a.75.75,0,1,0,.75.75A.743.743,0,0,0,21,30.75Zm-6-18A2.25,2.25,0,1,0,17.25,15,2.247,2.247,0,0,0,15,12.75ZM15,25.5A1.5,1.5,0,1,0,16.5,27,1.5,1.5,0,0,0,15,25.5Zm6-6.75A2.25,2.25,0,1,0,23.25,21,2.247,2.247,0,0,0,21,18.75Zm0-6A2.25,2.25,0,1,0,23.25,15,2.247,2.247,0,0,0,21,12.75Z" transform="translate(-3.75 -3.75)" fill="#fff" />
</svg>
