<svg xmlns="http://www.w3.org/2000/svg" width="17.733" height="16.161" viewBox="0 0 17.733 16.161">
    <g id="Group_2514" data-name="Group 2514" transform="translate(0.5 0.5)">
        <path id="Subtraction_4" data-name="Subtraction 4" d="M-5244.5-4561.412h-7.775a4.274,4.274,0,0,1-3.042-1.261,5.116,5.116,0,0,1-1.426-3.647v-5.339a4.6,4.6,0,0,1,1.155-3.353,4.6,4.6,0,0,1,3.189-1.554c.068,0,.132-.006.2-.006h7.632a4.6,4.6,0,0,1,3.252,1.416,4.6,4.6,0,0,1,1.3,3.3c0,.062,0,.121-.007.184v5.354a5.122,5.122,0,0,1-1.426,3.646A4.279,4.279,0,0,1-5244.5-4561.412Zm-5.338-6.769h0a2.373,2.373,0,0,0,1.477.518,2.37,2.37,0,0,0,1.477-.519l3.46-2.806a.529.529,0,0,0,.069-.056.58.58,0,0,0,.181-.409.578.578,0,0,0-.161-.416.579.579,0,0,0-.423-.182.578.578,0,0,0-.4.162l-3.449,2.8a1.2,1.2,0,0,1-.75.264,1.2,1.2,0,0,1-.75-.264l-3.484-2.808-.021-.017a.578.578,0,0,0-.354-.12.577.577,0,0,0-.462.227.578.578,0,0,0-.116.432.577.577,0,0,0,.223.386l3.485,2.814v-.008Z" transform="translate(5256.749 4576.573)" fill="#fff" stroke="rgba(0,0,0,0)" stroke-width="1" />
    </g>
</svg>
