<svg xmlns="http://www.w3.org/2000/svg" width="76.771" height="79.47" viewBox="0 0 76.771 79.47">
    <g id="Group_2612" data-name="Group 2612" transform="translate(0 0)">
        <path id="Path_12502" data-name="Path 12502" d="M3161.054,722.652h-34.367c-1.263,0-1.265,0-1.265-1.257q0-23.424,0-46.848c0-1.261,0-1.263,1.259-1.263h68.734c1.263,0,1.265,0,1.265,1.257q0,23.424,0,46.848c0,1.261,0,1.264-1.259,1.264Zm17.743-24.686c-.119-2.587.139-5.18-.148-7.764a8.106,8.106,0,0,0-16.154,1.145q-.088,6.619,0,13.239a8.114,8.114,0,0,0,16.139,1.4C3178.931,703.317,3178.676,700.639,3178.8,697.967ZM3157,704.76a5.542,5.542,0,0,1-11.082.2,1.33,1.33,0,0,0-1.392-1.412,1.378,1.378,0,0,0-1.17,1.534,8.064,8.064,0,0,0,9.065,7.743,7.8,7.8,0,0,0,6.772-5.6,8.046,8.046,0,0,0-2.466-8.6c-.788-.67-.782-.662.009-1.344a7.711,7.711,0,0,0,2.835-6.421,8.117,8.117,0,0,0-16.227.089,1.32,1.32,0,0,0,.708,1.278,1.134,1.134,0,0,0,1.287-.085,1.7,1.7,0,0,0,.606-1.437,5.548,5.548,0,1,1,5.9,5.951c-.995.071-1.549.475-1.632,1.191-.093.8.55,1.36,1.647,1.431A5.471,5.471,0,0,1,3157,704.76Z" transform="translate(-3125.404 -648.66)" fill="#7a6563" />
        <path id="Path_12503" data-name="Path 12503" d="M3160.95,587.509h-34.367c-1.216,0-1.219,0-1.219-1.218,0-3.847.021-7.694-.018-11.541-.008-.832.257-1.077,1.072-1.058,2.108.049,4.217,0,6.325.027.634.009.86-.2.838-.838-.038-1.11-.021-2.223-.006-3.334a4.16,4.16,0,0,1,8.316-.018c.026,1.8.114,1.544-1.55,1.561-1.2.012-1.2,0-1.3-1.219a1.414,1.414,0,0,0-1.267-1.472,1.373,1.373,0,0,0-1.33,1.487c-.034,1.053,0,2.109-.016,3.163-.008.471.178.666.655.663q3.376-.017,6.754,0c.53,0,.7-.222.687-.721-.019-1.139-.015-2.28,0-3.419a4.163,4.163,0,0,1,8.322-.07c.042,1.591.042,1.594-1.529,1.588-1.283,0-1.346.1-1.343-1.2a1.354,1.354,0,0,0-1.314-1.5c-.725.018-1.249.623-1.273,1.547-.027,1.025.009,2.052-.015,3.077-.012.527.215.691.717.691q10.173-.013,20.346,0c.586,0,.727-.257.717-.78-.022-1.14-.02-2.28,0-3.419a4.163,4.163,0,0,1,8.32-.041c.048,1.62.048,1.622-1.586,1.617-1.207,0-1.285.087-1.283-1.167a1.369,1.369,0,0,0-1.287-1.526,1.385,1.385,0,0,0-1.3,1.519c-.031,1.025.012,2.052-.018,3.077-.018.583.25.725.776.721q3.292-.026,6.583,0c.559.005.756-.2.744-.754-.026-1.139-.019-2.28,0-3.419a4.16,4.16,0,0,1,8.316-.007c.025,1.787.116,1.539-1.556,1.555-1.2.012-1.2,0-1.3-1.225a1.411,1.411,0,0,0-1.272-1.467,1.376,1.376,0,0,0-1.325,1.493c-.034.968.026,1.939-.025,2.906-.038.713.22.93.926.925,3.847-.028,7.694-.014,11.541-.013,1.222,0,1.224,0,1.225,1.212q0,5.728,0,11.456c0,1.127-.005,1.132-1.133,1.132Q3178.219,587.51,3160.95,587.509Z" transform="translate(-3125.346 -565.502)" fill="#7a6563" />
        <path id="Path_12504" data-name="Path 12504" d="M3174.4,681.909h-35.734c-1.265,0-1.273,0-1.266-1.255.01-1.788-.177-1.6,1.6-1.6q33.554-.006,67.109,0a8.888,8.888,0,0,0,1.11-.028,1.363,1.363,0,0,0,1.282-1.275,8.745,8.745,0,0,0,.03-1.109q0-30.776,0-61.552c0-.313.019-.628,0-.94-.035-.539.179-.772.739-.764,2.569.037,2.109-.289,2.111,2.033q.021,32.4.008,64.8c0,.313-.019.628,0,.94.036.546-.194.785-.747.755-.455-.025-.912,0-1.368,0Z" transform="translate(-3134.646 -602.444)" fill="#7a6563" />
        <path id="Path_12505" data-name="Path 12505" d="M3310.124,739.643c0,2.249.011,4.5,0,6.748a5.528,5.528,0,0,1-11.056.04q-.022-6.876,0-13.752a5.527,5.527,0,0,1,11.054-.039C3310.138,734.973,3310.124,737.308,3310.124,739.643Z" transform="translate(-3259.37 -690.248)" fill="#7a6563" />
    </g>
</svg>
