<svg xmlns="http://www.w3.org/2000/svg" width="18.854" height="23.651" viewBox="0 0 18.854 23.651">
    <g id="Group_2533" data-name="Group 2533" transform="translate(52.518 -343.709)">
        <path id="Path_12529" data-name="Path 12529" d="M-52.518,364.218c0-3.924,5.381-4.377,9.428-4.377,2.331,0,9.426,0,9.426,4.4,0,3.921-5.38,4.376-9.426,4.376C-45.418,368.618-52.518,368.618-52.518,364.218Z" transform="translate(0 -1.258)" fill="#fcfafa" />
        <path id="Path_12530" data-name="Path 12530" d="M-42.866,356.348a6.319,6.319,0,0,1-6.3-6.338,6.32,6.32,0,0,1,6.338-6.3h0a6.32,6.32,0,0,1,6.319,6.32,6.319,6.319,0,0,1-6.319,6.319Z" transform="translate(-0.261 0)" fill="#fcfafa" />
    </g>
</svg>
